<svg width="57" height="57" viewBox="0 0 57 57" fill="none" xmlns="http://www.w3.org/2000/svg">
<circle cx="28.4746" cy="28.332" r="28" fill="#101A2D"/>
<path d="M23.3545 35.2321C22.9445 35.2321 22.6045 34.8921 22.6045 34.4821V32.4121C22.6045 32.0021 22.9445 31.6621 23.3545 31.6621C23.7645 31.6621 24.1045 32.0021 24.1045 32.4121V34.4821C24.1045 34.9021 23.7645 35.2321 23.3545 35.2321Z" fill="#6BA6FF"/>
<path d="M28.4746 35.232C28.0646 35.232 27.7246 34.892 27.7246 34.482V30.332C27.7246 29.922 28.0646 29.582 28.4746 29.582C28.8846 29.582 29.2246 29.922 29.2246 30.332V34.482C29.2246 34.902 28.8846 35.232 28.4746 35.232Z" fill="#6BA6FF"/>
<path d="M33.5947 35.2317C33.1847 35.2317 32.8447 34.8917 32.8447 34.4817V28.2617C32.8447 27.8517 33.1847 27.5117 33.5947 27.5117C34.0047 27.5117 34.3447 27.8517 34.3447 28.2617V34.4817C34.3447 34.9017 34.0147 35.2317 33.5947 35.2317Z" fill="#6BA6FF"/>
<path d="M23.3547 29.5124C23.0147 29.5124 22.7147 29.2824 22.6247 28.9424C22.5247 28.5424 22.7647 28.1324 23.1747 28.0324C26.8547 27.1124 30.0947 25.1024 32.5647 22.2324L33.0247 21.6924C33.2947 21.3824 33.7647 21.3424 34.0847 21.6124C34.3947 21.8824 34.4347 22.3524 34.1647 22.6724L33.7047 23.2124C31.0347 26.3324 27.5147 28.5024 23.5347 29.4924C23.4747 29.5124 23.4147 29.5124 23.3547 29.5124Z" fill="#6BA6FF"/>
<path d="M33.5946 25.8516C33.1846 25.8516 32.8446 25.5116 32.8446 25.1016V22.9316H30.6646C30.2546 22.9316 29.9146 22.5916 29.9146 22.1816C29.9146 21.7716 30.2546 21.4316 30.6646 21.4316H33.5946C34.0046 21.4316 34.3446 21.7716 34.3446 22.1816V25.1116C34.3446 25.5216 34.0146 25.8516 33.5946 25.8516Z" fill="#6BA6FF"/>
<path d="M31.4746 39.082H25.4746C20.0446 39.082 17.7246 36.762 17.7246 31.332V25.332C17.7246 19.902 20.0446 17.582 25.4746 17.582H31.4746C36.9046 17.582 39.2246 19.902 39.2246 25.332V31.332C39.2246 36.762 36.9046 39.082 31.4746 39.082ZM25.4746 19.082C20.8646 19.082 19.2246 20.722 19.2246 25.332V31.332C19.2246 35.942 20.8646 37.582 25.4746 37.582H31.4746C36.0846 37.582 37.7246 35.942 37.7246 31.332V25.332C37.7246 20.722 36.0846 19.082 31.4746 19.082H25.4746Z" fill="#6BA6FF"/>
</svg>
