<svg width="57" height="57" viewBox="0 0 57 57" fill="none" xmlns="http://www.w3.org/2000/svg">
<circle cx="28.4746" cy="28.332" r="28" fill="#101A2D"/>
<path d="M37.4746 28.0822H19.4746C18.5146 28.0822 17.7246 27.2922 17.7246 26.3322V23.0122C17.7246 22.3322 18.1946 21.6422 18.8246 21.3922L27.8246 17.7922C28.2046 17.6422 28.7446 17.6422 29.1246 17.7922L38.1246 21.3922C38.7546 21.6422 39.2246 22.3422 39.2246 23.0122V26.3322C39.2246 27.2922 38.4346 28.0822 37.4746 28.0822ZM28.4746 19.1722C28.4346 19.1722 28.3946 19.1721 28.3746 19.1821L19.3846 22.7822C19.3246 22.8122 19.2246 22.9422 19.2246 23.0122V26.3322C19.2246 26.4722 19.3346 26.5822 19.4746 26.5822H37.4746C37.6146 26.5822 37.7246 26.4722 37.7246 26.3322V23.0122C37.7246 22.9422 37.6346 22.8122 37.5646 22.7822L28.5646 19.1821C28.5446 19.1721 28.5146 19.1722 28.4746 19.1722Z" fill="#6BA6FF"/>
<path d="M38.4746 39.082H18.4746C18.0646 39.082 17.7246 38.742 17.7246 38.332V35.332C17.7246 34.372 18.5146 33.582 19.4746 33.582H37.4746C38.4346 33.582 39.2246 34.372 39.2246 35.332V38.332C39.2246 38.742 38.8846 39.082 38.4746 39.082ZM19.2246 37.582H37.7246V35.332C37.7246 35.192 37.6146 35.082 37.4746 35.082H19.4746C19.3346 35.082 19.2246 35.192 19.2246 35.332V37.582Z" fill="#6BA6FF"/>
<path d="M20.4746 35.082C20.0646 35.082 19.7246 34.742 19.7246 34.332V27.332C19.7246 26.922 20.0646 26.582 20.4746 26.582C20.8846 26.582 21.2246 26.922 21.2246 27.332V34.332C21.2246 34.742 20.8846 35.082 20.4746 35.082Z" fill="#6BA6FF"/>
<path d="M24.4746 35.082C24.0646 35.082 23.7246 34.742 23.7246 34.332V27.332C23.7246 26.922 24.0646 26.582 24.4746 26.582C24.8846 26.582 25.2246 26.922 25.2246 27.332V34.332C25.2246 34.742 24.8846 35.082 24.4746 35.082Z" fill="#6BA6FF"/>
<path d="M28.4746 35.082C28.0646 35.082 27.7246 34.742 27.7246 34.332V27.332C27.7246 26.922 28.0646 26.582 28.4746 26.582C28.8846 26.582 29.2246 26.922 29.2246 27.332V34.332C29.2246 34.742 28.8846 35.082 28.4746 35.082Z" fill="#6BA6FF"/>
<path d="M32.4746 35.082C32.0646 35.082 31.7246 34.742 31.7246 34.332V27.332C31.7246 26.922 32.0646 26.582 32.4746 26.582C32.8846 26.582 33.2246 26.922 33.2246 27.332V34.332C33.2246 34.742 32.8846 35.082 32.4746 35.082Z" fill="#6BA6FF"/>
<path d="M36.4746 35.082C36.0646 35.082 35.7246 34.742 35.7246 34.332V27.332C35.7246 26.922 36.0646 26.582 36.4746 26.582C36.8846 26.582 37.2246 26.922 37.2246 27.332V34.332C37.2246 34.742 36.8846 35.082 36.4746 35.082Z" fill="#6BA6FF"/>
<path d="M39.4746 39.082H17.4746C17.0646 39.082 16.7246 38.742 16.7246 38.332C16.7246 37.922 17.0646 37.582 17.4746 37.582H39.4746C39.8846 37.582 40.2246 37.922 40.2246 38.332C40.2246 38.742 39.8846 39.082 39.4746 39.082Z" fill="#6BA6FF"/>
<path d="M28.4746 25.582C27.2346 25.582 26.2246 24.572 26.2246 23.332C26.2246 22.092 27.2346 21.082 28.4746 21.082C29.7146 21.082 30.7246 22.092 30.7246 23.332C30.7246 24.572 29.7146 25.582 28.4746 25.582ZM28.4746 22.582C28.0646 22.582 27.7246 22.922 27.7246 23.332C27.7246 23.742 28.0646 24.082 28.4746 24.082C28.8846 24.082 29.2246 23.742 29.2246 23.332C29.2246 22.922 28.8846 22.582 28.4746 22.582Z" fill="#6BA6FF"/>
</svg>
