<svg width="25" height="25" viewBox="0 0 25 25" fill="none" xmlns="http://www.w3.org/2000/svg">
<path d="M12.5508 2.82666C15.2678 2.82666 15.6068 2.83666 16.6728 2.88666C17.7378 2.93666 18.4628 3.10366 19.1008 3.35166C19.7608 3.60566 20.3168 3.94966 20.8728 4.50466C21.3813 5.00456 21.7747 5.60925 22.0258 6.27666C22.2728 6.91366 22.4408 7.63966 22.4908 8.70466C22.5378 9.77066 22.5508 10.1097 22.5508 12.8267C22.5508 15.5437 22.5408 15.8827 22.4908 16.9487C22.4408 18.0137 22.2728 18.7387 22.0258 19.3767C21.7755 20.0444 21.3819 20.6493 20.8728 21.1487C20.3727 21.657 19.7681 22.0504 19.1008 22.3017C18.4638 22.5487 17.7378 22.7167 16.6728 22.7667C15.6068 22.8137 15.2678 22.8267 12.5508 22.8267C9.83378 22.8267 9.49478 22.8167 8.42878 22.7667C7.36378 22.7167 6.63878 22.5487 6.00078 22.3017C5.33311 22.0511 4.72831 21.6576 4.22878 21.1487C3.72019 20.6488 3.32671 20.0441 3.07578 19.3767C2.82778 18.7397 2.66078 18.0137 2.61078 16.9487C2.56378 15.8827 2.55078 15.5437 2.55078 12.8267C2.55078 10.1097 2.56078 9.77066 2.61078 8.70466C2.66078 7.63866 2.82778 6.91466 3.07578 6.27666C3.32602 5.60884 3.71958 5.00398 4.22878 4.50466C4.72845 3.99589 5.33321 3.60239 6.00078 3.35166C6.63878 3.10366 7.36278 2.93666 8.42878 2.88666C9.49478 2.83966 9.83378 2.82666 12.5508 2.82666ZM12.5508 7.82666C11.2247 7.82666 9.95293 8.35344 9.01525 9.29113C8.07757 10.2288 7.55078 11.5006 7.55078 12.8267C7.55078 14.1527 8.07757 15.4245 9.01525 16.3622C9.95293 17.2999 11.2247 17.8267 12.5508 17.8267C13.8769 17.8267 15.1486 17.2999 16.0863 16.3622C17.024 15.4245 17.5508 14.1527 17.5508 12.8267C17.5508 11.5006 17.024 10.2288 16.0863 9.29113C15.1486 8.35344 13.8769 7.82666 12.5508 7.82666ZM19.0508 7.57666C19.0508 7.24514 18.9191 6.9272 18.6847 6.69278C18.4502 6.45836 18.1323 6.32666 17.8008 6.32666C17.4693 6.32666 17.1513 6.45836 16.9169 6.69278C16.6825 6.9272 16.5508 7.24514 16.5508 7.57666C16.5508 7.90818 16.6825 8.22612 16.9169 8.46054C17.1513 8.69496 17.4693 8.82666 17.8008 8.82666C18.1323 8.82666 18.4502 8.69496 18.6847 8.46054C18.9191 8.22612 19.0508 7.90818 19.0508 7.57666ZM12.5508 9.82666C13.3464 9.82666 14.1095 10.1427 14.6721 10.7053C15.2347 11.2679 15.5508 12.031 15.5508 12.8267C15.5508 13.6223 15.2347 14.3854 14.6721 14.948C14.1095 15.5106 13.3464 15.8267 12.5508 15.8267C11.7551 15.8267 10.9921 15.5106 10.4295 14.948C9.86685 14.3854 9.55078 13.6223 9.55078 12.8267C9.55078 12.031 9.86685 11.2679 10.4295 10.7053C10.9921 10.1427 11.7551 9.82666 12.5508 9.82666Z" fill="#B3B9C4"/>
</svg>
