<svg width="57" height="57" viewBox="0 0 57 57" fill="none" xmlns="http://www.w3.org/2000/svg">
<circle cx="28.4746" cy="28.332" r="28" fill="#101A2D"/>
<path d="M28.4746 31.582C26.6846 31.582 25.2246 30.122 25.2246 28.332C25.2246 26.542 26.6846 25.082 28.4746 25.082C30.2646 25.082 31.7246 26.542 31.7246 28.332C31.7246 30.122 30.2646 31.582 28.4746 31.582ZM28.4746 26.582C27.5146 26.582 26.7246 27.372 26.7246 28.332C26.7246 29.292 27.5146 30.082 28.4746 30.082C29.4346 30.082 30.2246 29.292 30.2246 28.332C30.2246 27.372 29.4346 26.582 28.4746 26.582Z" fill="#6BA6FF"/>
<path d="M34.9746 31.582C34.5646 31.582 34.2246 31.242 34.2246 30.832V25.832C34.2246 25.422 34.5646 25.082 34.9746 25.082C35.3846 25.082 35.7246 25.422 35.7246 25.832V30.832C35.7246 31.242 35.3846 31.582 34.9746 31.582Z" fill="#6BA6FF"/>
<path d="M21.4746 39.082C19.8146 39.082 18.2546 38.202 17.4146 36.772C16.9646 36.052 16.7246 35.202 16.7246 34.332C16.7246 31.712 18.8546 29.582 21.4746 29.582C24.0946 29.582 26.2246 31.712 26.2246 34.332C26.2246 35.202 25.9846 36.052 25.5346 36.782C24.6946 38.202 23.1346 39.082 21.4746 39.082ZM21.4746 31.082C19.6846 31.082 18.2246 32.542 18.2246 34.332C18.2246 34.922 18.3846 35.502 18.6946 36.002C19.2746 36.982 20.3446 37.582 21.4746 37.582C22.6046 37.582 23.6746 36.982 24.2546 36.012C24.5646 35.502 24.7246 34.932 24.7246 34.332C24.7246 32.542 23.2646 31.082 21.4746 31.082Z" fill="#6BA6FF"/>
<path d="M20.9045 36.0716C20.7145 36.0716 20.5245 36.0016 20.3745 35.8516L19.3845 34.8616C19.0945 34.5716 19.0945 34.0916 19.3845 33.8016C19.6745 33.5116 20.1545 33.5116 20.4445 33.8016L20.9245 34.2816L22.5245 32.8016C22.8245 32.5216 23.3045 32.5416 23.5845 32.8416C23.8645 33.1416 23.8445 33.6216 23.5445 33.9016L21.4145 35.8716C21.2645 36.0016 21.0845 36.0716 20.9045 36.0716Z" fill="#6BA6FF"/>
<path d="M33.4746 37.082H24.9746C24.5646 37.082 24.2246 36.742 24.2246 36.332C24.2246 35.922 24.5646 35.582 24.9746 35.582H33.4746C36.3346 35.582 37.7246 34.192 37.7246 31.332V25.332C37.7246 22.472 36.3346 21.082 33.4746 21.082H23.4746C20.6146 21.082 19.2246 22.472 19.2246 25.332V31.632C19.2246 32.042 18.8846 32.382 18.4746 32.382C18.0646 32.382 17.7246 32.042 17.7246 31.632V25.332C17.7246 21.682 19.8246 19.582 23.4746 19.582H33.4746C37.1246 19.582 39.2246 21.682 39.2246 25.332V31.332C39.2246 34.982 37.1246 37.082 33.4746 37.082Z" fill="#6BA6FF"/>
</svg>
