<svg width="162" height="34" viewBox="0 0 162 34" fill="none" xmlns="http://www.w3.org/2000/svg">
<path d="M34.0457 7.39232C34.0858 9.72453 33.3652 11.3435 32.0045 12.6976C30.6438 14.0518 29.3022 15.4296 27.894 16.7355C27.3447 17.2447 27.4493 17.5084 27.9222 17.9755C29.4796 19.514 31.1562 20.946 32.5418 22.642C34.9569 25.5977 34.562 29.6249 31.6702 32.2136C29.0011 34.603 24.8017 34.494 22.1498 31.8959C17.4119 27.2537 12.7164 22.5691 7.98537 17.9201C7.56075 17.5026 7.57045 17.2728 7.98837 16.8615C12.7589 12.1671 17.4641 7.4062 22.2886 2.76753C24.4683 0.67189 27.1046 0.224399 29.9726 1.45567C32.4014 2.49788 34.0477 5.01226 34.0457 7.39232Z" fill="#7A8699"/>
<path d="M0.512841 17.5032C0.513511 14.3392 0.392711 11.1692 0.550379 8.01278C0.68447 5.32965 1.82501 3.05482 4.34066 1.70143C7.19131 0.167866 10.3496 0.643018 12.73 2.92927C13.5528 3.71948 14.3274 4.56041 15.1744 5.32342C15.6844 5.7828 15.7236 6.06113 15.1957 6.57536C11.7553 9.92691 8.36529 13.3291 4.92665 16.6823C4.40873 17.1873 4.34033 17.4421 4.90016 17.9862C8.3445 21.3337 11.736 24.7346 15.1692 28.0936C15.6497 28.5634 15.7643 28.8513 15.1996 29.3493C14.3 30.1427 13.4845 31.029 12.6254 31.8679C11.7655 32.7253 10.6953 33.345 9.52063 33.666C8.34592 33.9869 7.1073 33.9979 5.92701 33.6979C4.74672 33.3978 3.66558 32.7972 2.79035 31.9552C1.91512 31.1132 1.27603 30.059 0.936211 28.8967C0.636536 27.933 0.488889 26.9291 0.498518 25.9205C0.538522 23.1152 0.51217 20.309 0.512841 17.5032Z" fill="#7A8699"/>
<path d="M114.366 16.5941C117.175 13.0769 119.853 9.73747 122.508 6.3799C122.627 6.20549 122.791 6.06576 122.981 5.9747C123.171 5.88365 123.382 5.84449 123.592 5.86117C125.188 5.89279 126.784 5.87313 128.376 5.87313C128.452 6.17424 128.229 6.27522 128.113 6.4201C125.596 9.56511 123.084 12.7143 120.539 15.8366C120.207 16.2434 120.254 16.4718 120.533 16.857C123.309 20.6992 126.074 24.5498 128.828 28.4089C128.9 28.5094 128.968 28.6137 129.042 28.7243C128.816 28.9679 128.549 28.8463 128.319 28.8485C126.894 28.8623 125.469 28.8355 124.044 28.8669C123.582 28.877 123.318 28.722 123.057 28.3431C121.209 25.6553 119.335 22.9854 117.468 20.3103C117.368 20.1662 117.262 20.0262 117.108 19.8149C116.223 20.8797 115.374 21.9111 114.511 22.9305C114.319 23.1582 114.369 23.4089 114.368 23.6564C114.363 25.1895 114.348 26.7228 114.376 28.2554C114.384 28.7149 114.276 28.8827 113.788 28.8669C112.67 28.8303 111.548 28.8197 110.43 28.8695C109.824 28.8963 109.67 28.7172 109.672 28.1082C109.697 22.1548 109.688 16.2014 109.688 10.2478C109.688 8.99575 109.713 7.7429 109.675 6.49208C109.66 5.97027 109.833 5.8475 110.325 5.86177C111.469 5.89661 112.615 5.90198 113.759 5.86009C114.288 5.84075 114.379 6.03642 114.376 6.51434C114.357 9.65704 114.366 12.7999 114.366 15.9428V16.5941Z" fill="#7A8699"/>
<path d="M63.691 5.87303C62.2968 7.61128 61.013 9.21293 59.728 10.8135C58.3873 12.4838 57.0592 14.1643 55.6941 15.8142C55.3789 16.1951 55.3616 16.4318 55.6575 16.8405C58.3626 20.5772 61.0518 24.3255 63.7252 28.0853C63.8791 28.3001 64.1147 28.4806 64.1314 28.8553C62.3646 28.8553 60.6192 28.8433 58.8743 28.8643C58.4686 28.8691 58.3674 28.5714 58.2036 28.3369C56.234 25.5198 54.2723 22.6971 52.2547 19.7985C51.3529 20.8851 50.4826 21.9415 49.6019 22.9891C49.4287 23.1951 49.4827 23.423 49.4819 23.6446C49.4762 25.1521 49.4598 26.6601 49.4899 28.1671C49.4998 28.6717 49.4082 28.893 48.8378 28.8691C47.7202 28.823 46.5982 28.8281 45.4798 28.868C44.993 28.8854 44.8951 28.7271 44.896 28.2676C44.9101 20.9854 44.9106 13.7032 44.8974 6.42079C44.8967 6.00027 44.9918 5.84984 45.4371 5.86227C46.5813 5.89419 47.7282 5.90203 48.8718 5.86014C49.3986 5.84064 49.4922 6.0325 49.4891 6.51195C49.4694 9.60355 49.4791 12.6955 49.4791 15.7872V16.3974C49.7695 16.4177 49.8232 16.1787 49.9336 16.041C52.4998 12.8377 55.059 9.62878 57.6111 6.4142C57.7374 6.22943 57.9098 6.08107 58.1109 5.9839C58.312 5.88672 58.5349 5.8441 58.7575 5.86029C60.3334 5.89512 61.9107 5.87303 63.691 5.87303Z" fill="#7A8699"/>
<path d="M85.1208 5.44506C78.3062 5.35297 72.959 10.5343 72.8951 17.3027C72.834 23.7698 77.5947 29.1149 84.5661 29.2771C91.3373 29.4346 96.7121 24.169 96.7882 17.4843C96.8273 14.3353 95.6209 11.2993 93.4336 9.04235C91.2464 6.78537 88.2568 5.49167 85.1208 5.44506ZM84.8619 24.6219C80.789 24.6327 77.7362 21.5301 77.7306 17.3744C77.7249 13.2849 80.864 10.0429 84.8335 10.0398C88.8361 10.0367 91.9331 13.2528 91.9476 17.427C91.9623 21.5246 88.9225 24.6113 84.8624 24.6218L84.8619 24.6219Z" fill="#7A8699"/>
<path d="M149.746 5.44532C143.008 5.43903 137.819 10.667 137.766 17.4118C137.718 23.5713 142.358 29.2046 149.636 29.2827C151.204 29.3094 152.761 29.0219 154.216 28.4369C155.671 27.852 156.996 26.9815 158.112 25.8762C159.229 24.771 160.114 23.4532 160.717 22.0001C161.32 20.5471 161.628 18.9879 161.623 17.4138C161.623 10.6965 156.418 5.45161 149.746 5.44532ZM149.712 24.6222C145.622 24.6222 142.615 21.5444 142.619 17.3613C142.623 13.2471 145.734 10.0352 149.712 10.0405C153.726 10.0461 156.815 13.2655 156.814 17.4405C156.811 21.5511 153.774 24.622 149.712 24.622V24.6222Z" fill="#7A8699"/>
</svg>
