<svg width="25" height="25" viewBox="0 0 25 25" fill="none" xmlns="http://www.w3.org/2000/svg">
<path d="M18.8858 19.1657H16.2208V14.9887C16.2208 13.9927 16.2008 12.7107 14.8308 12.7107C13.4418 12.7107 13.2298 13.7947 13.2298 14.9157V19.1657H10.5638V10.5767H13.1238V11.7467H13.1588C13.5168 11.0727 14.3868 10.3597 15.6868 10.3597C18.3868 10.3597 18.8868 12.1377 18.8868 14.4507V19.1657H18.8858ZM7.55378 9.40166C7.35034 9.40192 7.14884 9.36203 6.96084 9.28427C6.77285 9.2065 6.60205 9.0924 6.45824 8.9485C6.31443 8.80459 6.20043 8.63372 6.12279 8.44567C6.04515 8.25763 6.00539 8.0561 6.00578 7.85266C6.00598 7.54649 6.09696 7.24726 6.26722 6.99281C6.43748 6.73835 6.67938 6.54009 6.96231 6.42311C7.24525 6.30613 7.55652 6.27568 7.85676 6.3356C8.15701 6.39552 8.43274 6.54314 8.64909 6.75977C8.86544 6.9764 9.0127 7.25232 9.07223 7.55264C9.13177 7.85296 9.10091 8.16419 8.98356 8.44698C8.86622 8.72976 8.66765 8.9714 8.41297 9.14133C8.15829 9.31126 7.85895 9.40186 7.55278 9.40166H7.55378ZM8.88978 19.1657H6.21678V10.5767H8.89078V19.1657H8.88978ZM20.2208 3.82666H4.87978C4.14378 3.82666 3.55078 4.40666 3.55078 5.12366V20.5297C3.55078 21.2467 4.14478 21.8267 4.87878 21.8267H20.2168C20.9508 21.8267 21.5508 21.2467 21.5508 20.5297V5.12366C21.5508 4.40666 20.9508 3.82666 20.2168 3.82666H20.2198H20.2208Z" fill="#B3B9C4"/>
</svg>
