<svg width="182" height="39" viewBox="0 0 182 39" fill="none" xmlns="http://www.w3.org/2000/svg">
<g clip-path="url(#clip0_3840_4579)">
<path d="M57.6797 29.7624H52.5289C52.0906 29.7624 51.9665 29.6333 52.0271 29.197C52.2529 27.5698 52.488 25.9435 52.7193 24.3174C52.955 22.6655 53.1905 21.0135 53.4258 19.3614C53.6973 17.4629 53.9687 15.5642 54.24 13.6654C54.42 12.4051 54.599 11.1449 54.7772 9.88464C54.8241 9.5525 54.9292 9.45703 55.2702 9.45703C56.7441 9.45703 58.2181 9.45703 59.6923 9.45703C60.0914 9.45703 60.2184 9.6145 60.1625 10.0028C59.891 11.8932 59.6218 13.7835 59.3549 15.6739C59.1015 17.445 58.8478 19.2157 58.5937 20.9858C58.4171 22.2209 58.2412 23.4559 58.0661 24.691C58.017 25.0384 58.1478 25.1779 58.5142 25.1785C60.1272 25.1785 61.7399 25.1785 63.3526 25.1785C63.8642 25.1785 63.968 25.3004 63.8969 25.7957C63.7322 26.9453 63.5698 28.0951 63.4096 29.245C63.3484 29.6838 63.2606 29.7628 62.8035 29.7628L57.6797 29.7624Z" fill="#657387"/>
<path d="M112.837 29.7625C111.129 29.7625 109.422 29.7625 107.714 29.7625C107.23 29.7625 107.125 29.623 107.194 29.141C107.452 27.371 107.702 25.5998 107.954 23.829C108.226 21.9305 108.497 20.032 108.768 18.1336C109.039 16.2351 109.307 14.3361 109.573 12.4364C109.695 11.5678 109.819 10.6994 109.943 9.83124C109.943 9.77662 109.955 9.72261 109.977 9.67293C110 9.62325 110.034 9.57912 110.075 9.54359C110.117 9.50806 110.166 9.482 110.219 9.4672C110.272 9.4524 110.327 9.44922 110.381 9.4579C111.889 9.45626 113.397 9.45626 114.906 9.4579C115.237 9.4579 115.38 9.62803 115.334 9.95317C114.996 12.3199 114.657 14.6867 114.318 17.0536C113.98 19.4373 113.644 21.8217 113.311 24.2067C113.288 24.3687 113.262 24.5302 113.237 24.6911C113.183 25.0264 113.31 25.1786 113.653 25.1786C115.283 25.1802 116.913 25.1802 118.542 25.1786C118.672 25.165 118.803 25.188 118.921 25.2449C118.99 25.2901 119.044 25.3561 119.073 25.4335C119.102 25.5109 119.105 25.5954 119.082 25.6748C118.907 26.8831 118.733 28.0919 118.561 29.3011C118.507 29.6777 118.405 29.7629 118.013 29.7629C116.288 29.7628 114.563 29.7627 112.837 29.7625Z" fill="#657387"/>
<path d="M142.182 9.80987C142.858 9.80987 143.534 9.80987 144.211 9.80987C144.652 9.80987 144.752 9.91478 144.69 10.3568C144.479 11.8386 144.26 13.3191 144.044 14.7991C143.985 15.1993 143.92 15.5986 143.866 15.9987C143.822 16.3297 143.959 16.4834 144.297 16.4846C144.939 16.4868 145.58 16.4834 146.222 16.4863C146.557 16.4874 146.702 16.6543 146.656 16.9738C146.504 18.0296 146.353 19.0852 146.202 20.1405C146.159 20.4375 146.066 20.5237 145.76 20.5243C145.066 20.526 144.373 20.5231 143.679 20.5254C143.325 20.5265 143.22 20.6182 143.171 20.9668C142.996 22.2279 142.823 23.489 142.65 24.75C142.64 24.818 142.634 24.8866 142.633 24.9553C142.616 25.7519 142.953 26.0615 143.749 25.9782C143.99 25.9544 144.228 25.9101 144.462 25.8459C144.767 25.7597 144.912 25.847 145.008 26.1506C145.267 26.9697 145.52 27.791 145.784 28.609C145.832 28.7113 145.838 28.8282 145.8 28.9345C145.762 29.0408 145.683 29.128 145.581 29.1772C144.301 29.975 142.796 30.3385 141.291 30.2132C140.658 30.1844 140.036 30.0454 139.452 29.8024C138.367 29.3109 137.852 28.3997 137.615 27.2978C137.41 26.3398 137.501 25.3801 137.634 24.422C137.873 22.7184 138.11 21.0146 138.346 19.3107C138.612 17.4116 138.879 15.5123 139.145 13.6129C139.305 12.4715 139.464 11.3301 139.629 10.1893C139.673 9.88133 139.765 9.80987 140.074 9.80874C140.777 9.80836 141.48 9.80873 142.182 9.80987Z" fill="#657387"/>
<path d="M169.838 17.8084C170.185 17.4418 170.562 17.1045 170.965 16.7999C172.302 15.8281 173.711 15.6986 175.189 16.4398C175.975 16.8345 175.974 16.8659 175.498 17.5786C174.823 18.5898 174.149 19.6013 173.476 20.613C173.305 20.8687 173.127 20.9154 172.887 20.7761C172.395 20.4995 171.824 20.3934 171.264 20.4742C170.704 20.5551 170.187 20.8185 169.794 21.223C169.286 21.7578 169.134 22.3761 169.043 23.0621C168.763 25.1763 168.454 27.2873 168.155 29.3994C168.117 29.6684 167.989 29.7612 167.655 29.7618C166.389 29.7629 165.123 29.7476 163.857 29.7678C163.145 29.7794 163.053 29.6246 163.153 28.9794C163.415 27.2969 163.637 25.6079 163.873 23.9213C164.124 22.1243 164.375 20.3268 164.624 18.5288C164.7 17.9925 164.772 17.4555 164.854 16.9201C164.904 16.5929 164.991 16.5166 165.31 16.5156C166.697 16.5135 168.084 16.5135 169.471 16.5156C169.827 16.5156 169.953 16.6721 169.906 17.0224C169.874 17.2525 169.849 17.4831 169.822 17.7137C169.824 17.7458 169.829 17.7776 169.838 17.8084Z" fill="#657387"/>
<path d="M70.188 16.4861C70.8722 16.4861 71.5569 16.4861 72.242 16.4861C72.6334 16.4861 72.7552 16.6332 72.7024 17.0099C72.3971 19.1902 72.093 21.3704 71.79 23.5506C71.519 25.4837 71.2461 27.4164 70.9714 29.3487C70.9262 29.6677 70.8146 29.7605 70.4906 29.761C69.1204 29.7622 67.7508 29.7622 66.3815 29.761C66.0183 29.761 65.8826 29.593 65.9322 29.2401C66.2066 27.29 66.479 25.3397 66.7495 23.3892C66.9847 21.7114 67.2207 20.034 67.4577 18.3568C67.5284 17.8546 67.6012 17.3521 67.6668 16.8487C67.668 16.7948 67.6809 16.7417 67.7045 16.6931C67.7281 16.6446 67.7618 16.6016 67.8035 16.567C67.8452 16.5325 67.8938 16.5073 67.9461 16.493C67.9984 16.4787 68.0532 16.4757 68.1068 16.4842C68.8009 16.4893 69.4941 16.4861 70.188 16.4861Z" fill="#657387"/>
<path d="M52.0232 7.17529C50.2016 7.18626 48.38 7.18079 46.5639 7.18079C46.5418 7.26869 46.5259 7.35092 46.5031 7.43882C46.4813 7.43426 46.459 7.43242 46.4367 7.43334V7.41141C46.4382 7.36575 46.4505 7.32108 46.4725 7.28102C46.4946 7.24095 46.5258 7.20662 46.5637 7.18079L46.5527 7.17529C46.4435 7.10427 46.3114 7.07687 46.1828 7.09856C45.686 7.10404 45.1891 7.115 44.6868 7.10404C44.1955 7.09307 43.7042 7.09855 43.213 7.10952C42.9131 7.08159 42.6106 7.11524 42.3243 7.20839C41.9082 7.30266 41.5193 7.49015 41.1871 7.75659C40.9776 7.94204 40.7855 8.14603 40.6131 8.36604C40.2047 8.86567 40.0832 9.47513 39.9783 10.0844C39.9198 10.34 39.8938 10.6019 39.9009 10.864C39.9175 10.8859 39.9285 10.9133 39.945 10.9354C39.8888 11.1077 39.8572 11.2869 39.8511 11.4679C39.8147 11.9226 39.7448 12.3741 39.6421 12.8186C39.6184 13.1518 39.5667 13.4824 39.4875 13.8069C39.3993 13.9361 39.3548 14.09 39.3606 14.246C39.2942 14.6907 39.2275 15.1409 39.1562 15.591C39.1452 15.86 39.0403 16.1181 39.0679 16.3871C39.0844 16.4145 39.1009 16.4364 39.1175 16.464C39.1009 16.5408 39.0844 16.6287 39.0679 16.7056C39.0329 16.9993 38.9813 17.2907 38.9133 17.5786C38.8968 17.7651 38.8084 17.9903 38.8858 18.1221C38.9852 18.2977 39.2446 18.1495 39.4322 18.199L40.3155 18.1825L40.9393 18.199H43.2797L44.7149 18.1825C44.7204 18.1935 44.7315 18.199 44.7425 18.21C44.7533 18.2151 44.7655 18.2168 44.7774 18.2148C44.7893 18.2129 44.8002 18.2073 44.8088 18.199C44.8153 18.1991 44.8217 18.1977 44.8274 18.1949C44.8332 18.192 44.8382 18.1878 44.8419 18.1825C45.8907 18.188 46.9395 18.1716 47.9882 18.1935C49.6884 18.2374 50.8145 16.9527 51.0354 15.5143C51.1624 14.6799 51.2838 13.8453 51.4155 13.0164C51.7025 11.1663 51.984 9.31122 52.2767 7.46036C52.3159 7.24108 52.2659 7.16981 52.0232 7.17529ZM45.7303 12.2489C45.7027 12.2653 45.6751 12.2818 45.6529 12.2982C45.6584 12.2818 45.6584 12.2653 45.6639 12.2489C45.6639 12.2379 45.6694 12.2269 45.6694 12.216C45.6809 12.2067 45.6937 12.1993 45.7075 12.194C45.7157 12.1954 45.7234 12.1992 45.7295 12.205C45.735 12.2105 45.735 12.216 45.735 12.2269C45.7358 12.2317 45.7303 12.2426 45.7303 12.2489Z" fill="#42526D"/>
<path d="M45.7371 12.2253C45.7371 12.2307 45.7315 12.2417 45.7315 12.2472C45.7037 12.2636 45.6758 12.2801 45.6533 12.2965C45.6589 12.2801 45.6589 12.2636 45.6645 12.2472C45.6645 12.2362 45.67 12.2253 45.67 12.2143C45.6816 12.205 45.6946 12.1976 45.7085 12.1924C45.7169 12.1938 45.7246 12.1976 45.7308 12.2033C45.7371 12.2096 45.7371 12.2151 45.7371 12.2253Z" fill="#9FC650"/>
<path d="M46.5637 7.18066C46.5416 7.26857 46.5257 7.35079 46.5028 7.4387C46.4811 7.43414 46.4588 7.4323 46.4365 7.43322V7.41129C46.438 7.36562 46.4503 7.32094 46.4724 7.28087C46.4945 7.2408 46.5258 7.20647 46.5637 7.18066Z" fill="#9FC650"/>
<path d="M45.7371 12.2253C45.7371 12.2307 45.7315 12.2417 45.7315 12.2472C45.7037 12.2636 45.6758 12.2801 45.6533 12.2965C45.6589 12.2801 45.6589 12.2636 45.6645 12.2472C45.6645 12.2362 45.67 12.2253 45.67 12.2143C45.6816 12.205 45.6946 12.1976 45.7085 12.1924C45.7169 12.1938 45.7246 12.1976 45.7308 12.2033C45.7371 12.2096 45.7371 12.2151 45.7371 12.2253Z" fill="#79AE39"/>
<path d="M46.5637 7.18066C46.5416 7.26857 46.5257 7.35079 46.5028 7.4387C46.4811 7.43414 46.4588 7.4323 46.4365 7.43322V7.41129C46.438 7.36562 46.4503 7.32094 46.4724 7.28087C46.4945 7.2408 46.5258 7.20647 46.5637 7.18066Z" fill="#79AE39"/>
<path d="M71.3715 8.7234C72.9635 8.68673 73.7265 9.77255 73.8192 10.7519C73.8797 11.3825 73.7319 12.0155 73.3981 12.555C73.0643 13.0944 72.5627 13.511 71.9695 13.7414C71.3081 14.0136 70.5777 14.0731 69.8807 13.9115C69.4104 13.8019 68.9896 13.541 68.6838 13.1692C68.3779 12.7974 68.204 12.3355 68.1891 11.8554C68.0809 9.951 69.7524 8.6769 71.3715 8.7234Z" fill="#657387"/>
<path d="M181.625 8.02855C181.625 8.59477 181.456 9.14837 181.14 9.61926C180.824 10.0901 180.375 10.4571 179.849 10.6737C179.323 10.8903 178.744 10.9468 178.186 10.836C177.627 10.7252 177.115 10.4521 176.712 10.0514C176.31 9.65057 176.037 9.14011 175.927 8.58461C175.816 8.02911 175.874 7.45356 176.093 6.93086C176.312 6.40815 176.682 5.9618 177.156 5.64833C177.63 5.33486 178.187 5.16836 178.756 5.16993C179.516 5.17749 180.242 5.48127 180.778 6.0159C181.315 6.55053 181.619 7.27327 181.625 8.02855Z" fill="#657387"/>
<path d="M89.0031 20.9538C88.9075 20.11 88.6094 19.3014 88.1338 18.5961C87.6583 17.8909 87.0193 17.3096 86.2707 16.9014C85.0674 16.2135 83.7491 15.9796 82.3797 15.9692C81.1997 15.9742 80.0283 16.1692 78.911 16.5467C77.6231 16.9626 76.3831 17.4817 75.2881 18.2982C75.1978 18.3634 75.1228 18.4473 75.068 18.544C75.0132 18.6407 74.98 18.748 74.9707 18.8587C74.8327 19.8984 74.6856 20.9381 74.5368 21.9778C74.2156 24.2336 73.893 26.4901 73.5692 28.7472C73.2485 31.003 72.9294 33.26 72.612 35.5181C72.5491 35.9589 72.6656 36.1041 73.1155 36.1041C73.9999 36.1064 74.8846 36.1041 75.769 36.1041C76.2459 36.1041 76.7229 36.109 77.1998 36.1024C77.5271 36.0986 77.6309 35.9949 77.6729 35.6792C77.721 35.3213 77.7755 34.9638 77.8249 34.6064C78.0397 33.0723 78.2511 31.5385 78.4691 30.0056C78.5282 29.5897 78.7161 29.4952 79.0972 29.668C79.5821 29.9177 80.1035 30.0899 80.6423 30.1784C83.0436 30.4457 85.1029 29.6854 86.7601 27.9786C88.6587 26.0243 89.3663 23.6281 89.0031 20.9538ZM83.7839 23.8184C83.3277 25.4617 81.9212 26.2381 80.2677 25.7598C79.9569 25.6808 79.6628 25.5475 79.3989 25.3663C79.3186 25.315 79.256 25.2405 79.2195 25.1529C79.183 25.0652 79.1743 24.9686 79.1945 24.8759C79.3846 23.6175 79.5697 22.3585 79.7499 21.0987C79.7497 21.03 79.7665 20.9623 79.7988 20.9016C79.8312 20.8409 79.8781 20.7891 79.9354 20.7507C80.6075 20.3434 81.4001 20.1786 82.1799 20.284C83.2253 20.4415 83.8453 21.1613 83.916 22.2572C83.9249 22.3944 83.9177 22.5322 83.9177 22.67C83.9344 23.0575 83.8893 23.4452 83.7839 23.8186V23.8184Z" fill="#657387"/>
<path d="M105.705 18.3607C105.449 18.1032 105.168 17.8722 104.865 17.6711C102.441 16.0799 99.8084 15.627 96.9734 16.2261C92.2095 17.2329 89.3038 22.3096 90.8854 26.8787C91.3415 28.193 92.1252 29.2515 93.4015 29.8638C94.7291 30.5006 96.0666 30.2919 97.3738 29.7503C97.8478 29.5399 98.3059 29.2957 98.7444 29.0195C98.7976 28.9819 98.8602 28.9595 98.9253 28.955C98.9904 28.9505 99.0555 28.964 99.1134 28.994C99.1714 29.024 99.2198 29.0693 99.2535 29.1249C99.2871 29.1806 99.3046 29.2444 99.3041 29.3093C99.3285 29.6694 99.4212 29.7611 99.7755 29.763C100.46 29.7647 101.146 29.763 101.831 29.763H103.834C104.231 29.763 104.319 29.6874 104.373 29.3017C104.477 28.5606 104.582 27.8194 104.687 27.0783C105.078 24.3365 105.471 21.5945 105.864 18.8524C105.882 18.7637 105.877 18.6721 105.849 18.5861C105.821 18.5001 105.772 18.4225 105.705 18.3607ZM100.425 21.2276C100.292 22.1728 100.169 23.1189 100.025 24.0622C99.9709 24.4174 99.716 24.6737 99.4769 24.9202C99.0067 25.4049 98.4722 25.8087 97.7762 25.8855C96.5805 26.0167 95.7581 25.2898 95.6803 24.066C95.672 23.9374 95.6792 23.808 95.6792 23.6788C95.6847 22.7785 95.8729 21.9274 96.5106 21.2499C96.8638 20.8548 97.3189 20.5633 97.8266 20.4067C98.3343 20.2501 98.8754 20.2345 99.3914 20.3614C99.7584 20.437 100.034 20.6887 100.329 20.8968C100.375 20.937 100.408 20.9895 100.426 21.0481C100.443 21.1067 100.443 21.169 100.425 21.2276Z" fill="#657387"/>
<path d="M136.042 18.3619C135.68 18.0017 135.273 17.6896 134.831 17.4335C132.724 16.136 130.204 15.6735 127.77 16.1378C125.912 16.4683 124.29 17.2651 122.992 18.652C121.782 19.9456 121.143 21.5036 120.923 23.2347C120.752 24.5732 120.81 25.9001 121.331 27.17C122.2 29.2872 124.103 30.8347 126.959 30.026C127.699 29.7856 128.405 29.4516 129.06 29.0322C129.349 28.8636 129.613 28.9944 129.638 29.3099C129.666 29.6691 129.761 29.7602 130.117 29.7612C130.793 29.7629 131.469 29.7612 132.145 29.7612C132.847 29.7612 133.549 29.7634 134.252 29.7612C134.542 29.7595 134.665 29.6519 134.705 29.3757C134.894 28.0564 135.082 26.7369 135.269 25.4173C135.579 23.2289 135.888 21.0405 136.197 18.8522C136.215 18.7641 136.209 18.673 136.182 18.5873C136.155 18.5017 136.107 18.4242 136.042 18.3619ZM130.76 21.2035C130.627 22.1653 130.503 23.1282 130.355 24.0874C130.304 24.4233 130.057 24.6683 129.829 24.9003C129.272 25.4647 128.657 25.9237 127.801 25.8946C127.377 25.9016 126.965 25.7526 126.644 25.4763C126.323 25.1999 126.116 24.8156 126.063 24.3969C126.02 24.1599 126.001 23.9192 126.008 23.6785C125.994 23.0052 126.157 22.34 126.48 21.7483C126.801 21.2075 127.286 20.7813 127.864 20.5307C128.443 20.28 129.087 20.2177 129.703 20.3526C130.069 20.4454 130.345 20.6815 130.645 20.8808C130.694 20.9173 130.731 20.9674 130.752 21.0248C130.772 21.0822 130.775 21.1444 130.76 21.2035Z" fill="#657387"/>
<path d="M161.154 18.5091C160.016 16.8308 158.319 16.0818 156.33 15.9841C154.188 15.8792 152.278 16.566 150.625 17.8904C148.496 19.5951 147.347 21.7845 147.605 24.5571C147.821 26.8838 149.029 28.5902 151.163 29.546C153.843 30.7471 156.444 30.3899 158.92 28.8932C159.179 28.7367 159.211 28.5798 159.059 28.3052C158.604 27.4839 158.148 26.6638 157.689 25.845C157.535 25.5688 157.417 25.5305 157.114 25.6254C156.457 25.8461 155.767 25.9572 155.073 25.9543C154.517 25.9563 153.967 25.8521 153.451 25.6473C153.399 25.6318 153.351 25.6041 153.312 25.5664C153.273 25.5288 153.244 25.4823 153.227 25.431C153.209 25.3796 153.205 25.3249 153.214 25.2715C153.222 25.2181 153.244 25.1675 153.276 25.124C153.322 25.0667 153.382 25.0224 153.451 24.9954C153.52 24.9685 153.594 24.9598 153.667 24.9704C154.725 24.9715 155.783 24.9715 156.84 24.9704C157.898 24.9692 158.956 24.9696 160.013 24.9715C160.086 24.9804 160.16 24.9714 160.229 24.9454C160.298 24.9194 160.359 24.8771 160.407 24.8222C160.774 24.3974 161.096 23.9368 161.368 23.4475C162.249 21.7592 162.222 20.0853 161.154 18.5091ZM157.523 21.2235C157.488 21.369 157.422 21.4102 157.276 21.408C156.706 21.3996 156.135 21.4047 155.564 21.4047C155.002 21.4047 154.439 21.4015 153.877 21.4064C153.668 21.4081 153.493 21.3592 153.437 21.1357C153.383 20.921 153.513 20.7991 153.688 20.7102C154.212 20.4412 154.787 20.2847 155.375 20.251C155.963 20.2172 156.552 20.3069 157.104 20.5142C157.502 20.6514 157.606 20.8836 157.524 21.2235H157.523Z" fill="#657387"/>
<path d="M26.3159 29.8683C26.2499 30.1247 26.2034 30.3857 26.1768 30.649C26.1211 30.9783 26.0515 31.3067 26.015 31.6385C25.996 31.8126 25.9234 31.8464 25.7679 31.8415C25.4828 31.8332 25.1977 31.8437 24.9126 31.847C23.9243 31.847 22.9359 31.847 21.9476 31.847H16.5877C15.8624 31.8256 15.1337 31.8677 14.4134 31.735C13.1019 31.494 11.9668 30.9789 11.314 29.7394C10.8878 28.929 10.8061 28.0517 10.8895 27.1568C10.9756 26.2235 11.1689 25.3042 11.3029 24.3779C11.3189 24.2675 11.3267 24.1566 11.3389 24.0458C11.4529 23.5125 11.5389 22.9737 11.5966 22.4316C11.707 21.7722 11.8201 21.1134 11.9279 20.4535C12.0769 19.5378 12.2234 18.6219 12.3673 17.7057C12.3736 17.646 12.3765 17.5861 12.3761 17.5261C12.4952 16.8168 12.6178 16.1083 12.7326 15.3981C12.8237 14.831 12.9054 14.2627 12.9915 13.6951C13.1665 12.6212 13.3411 11.5475 13.5153 10.4741C13.575 10.1024 13.6223 9.72851 13.6753 9.35573C13.8072 8.73928 13.8951 8.11602 13.9794 7.49182C13.9893 7.45061 14.0015 7.40941 14.0104 7.36782C14.1142 6.87198 14.1142 6.87255 14.6165 6.8716C14.9438 6.87047 15.2717 6.86612 15.5992 6.86328H18.8775C19.4212 6.86612 19.9648 6.87707 20.5086 6.86762C20.7095 6.86384 20.7709 6.89787 20.731 7.11848C20.6046 7.82623 20.5057 8.53871 20.3959 9.24968C20.4213 9.29944 20.4363 9.35384 20.4399 9.40954C20.4435 9.46525 20.4356 9.5211 20.4168 9.57368C20.3081 10.2247 20.2159 10.878 20.0965 11.5281C20.0182 12.0985 19.9177 12.6656 19.8327 13.2355C19.6953 14.0799 19.5476 14.9232 19.422 15.7686C19.3116 16.4236 19.2129 17.0801 19.1069 17.7357C18.8849 19.1473 18.652 20.5565 18.4356 21.9692C18.3306 22.6741 18.1993 23.3747 18.0984 24.0802C18.0463 24.3593 18.0383 24.6448 18.0746 24.9263C18.0963 25.1204 18.1782 25.3029 18.309 25.4486C18.4397 25.5943 18.6128 25.6958 18.8043 25.7392C18.9961 25.7923 19.1943 25.8191 19.3935 25.8188C19.9295 25.8159 20.4655 25.8188 21.0014 25.8167C22.1805 25.8041 23.3594 25.8037 24.5382 25.8155C25.0194 25.8089 25.5009 25.8046 25.9827 25.8188C26.2233 25.8104 26.4639 25.8089 26.7049 25.8188C26.9572 25.8292 27.0113 25.8912 26.9788 26.1371C26.9347 26.467 26.8786 26.7953 26.8104 27.122C26.7344 27.6963 26.6261 28.2656 26.5377 28.8382C26.4847 29.0946 26.4664 29.3566 26.4113 29.6124C26.3913 29.702 26.3948 29.8008 26.3159 29.8683Z" fill="white"/>
<path d="M45.7371 12.2253C45.7371 12.2307 45.7315 12.2417 45.7315 12.2472C45.7037 12.2636 45.6758 12.2801 45.6533 12.2965C45.6589 12.2801 45.6589 12.2636 45.6645 12.2472C45.6645 12.2362 45.67 12.2253 45.67 12.2143C45.6816 12.205 45.6946 12.1976 45.7085 12.1924C45.7169 12.1938 45.7246 12.1976 45.7308 12.2033C45.7371 12.2096 45.7371 12.2151 45.7371 12.2253Z" fill="#80B13C"/>
<path d="M46.5041 7.43855C46.482 7.43399 46.4595 7.43215 46.437 7.43307V7.41113C46.4603 7.4179 46.4828 7.42709 46.5041 7.43855Z" fill="#80B13C"/>
<path d="M30.7925 6.86269H31.9899C32.477 6.87106 32.9633 6.90368 33.4471 6.96041C34.1021 7.05828 34.7356 7.26602 35.3206 7.57478C35.7833 7.84408 36.1791 8.21352 36.4787 8.65569C36.7783 9.09786 36.9739 9.60143 37.0512 10.1291C37.1359 10.2683 37.1773 10.4293 37.1703 10.5918C37.1964 11.1627 37.1658 11.7348 37.0787 12.2998C36.9938 12.7807 36.9303 13.2655 36.8442 13.7465C36.8431 13.8756 36.8034 14.0016 36.7301 14.1083C36.6678 14.4871 36.6054 14.8658 36.5429 15.2442L36.5142 15.4968C36.4589 15.6662 36.4277 15.8425 36.4215 16.0206C36.2974 16.7238 36.171 17.4278 36.0925 18.1378C35.9959 18.7236 35.8993 19.3096 35.8026 19.8958C35.7171 20.4108 35.6145 20.9225 35.5675 21.4435C35.4257 22.1643 35.3075 22.8885 35.2191 23.6174L34.915 25.479L34.5672 27.6418L34.1758 30.1832C34.104 30.6131 34.0152 31.0407 33.9668 31.4734C33.9364 31.7447 33.8527 31.9 33.5517 31.8462H29.96H28.5033H27.5665C27.2392 31.8286 27.2392 31.8286 27.2943 31.3702C27.2198 31.1286 27.3169 30.8976 27.3418 30.6619C27.3557 30.5344 27.3838 30.4087 27.4009 30.2819C27.4914 29.7148 27.5842 29.1492 27.6687 28.5821C27.8221 27.7074 27.9386 26.8274 28.0838 25.9512C28.1882 25.3274 28.2809 24.7017 28.3809 24.0769C28.495 23.3917 28.5972 22.7044 28.7088 22.0187C28.8496 21.1413 28.9881 20.2636 29.1245 19.3856C29.2546 18.6423 29.3596 17.8951 29.4816 17.1506C29.63 16.2151 29.7802 15.2807 29.9254 14.3446C29.9434 14.2078 29.9438 14.0692 29.9265 13.9323C29.8613 13.3037 29.5705 13.0172 28.9357 12.9396C28.1755 12.8463 27.4121 12.9088 26.6498 12.8958C26.0707 12.8958 25.4917 12.9051 24.9126 12.8914C24.2253 12.903 23.5386 12.9047 22.8513 12.8903C22.3583 12.9013 21.8654 12.8975 21.3724 12.8932C21.0312 12.8903 20.9666 12.8175 21.0191 12.4918C21.1014 11.9829 21.1742 11.471 21.2662 10.9644C21.2852 10.8568 21.2852 10.7376 21.3853 10.6602C21.5515 9.7988 21.6894 8.93301 21.8092 8.06401C21.8704 7.72034 21.9422 7.37781 21.9886 7.03188C22.0076 6.89407 22.0614 6.86438 22.1857 6.86835C22.3663 6.8744 22.5468 6.86514 22.7278 6.8623H30.7925V6.86269Z" fill="white"/>
<path d="M176.366 8.00213C176.368 7.68824 176.434 7.37802 176.558 7.08943C176.682 6.80085 176.862 6.53963 177.089 6.32094C177.315 6.10224 177.583 5.93041 177.877 5.8154C178.17 5.70038 178.484 5.64446 178.8 5.65089C179.115 5.65732 179.426 5.72597 179.715 5.85285C180.004 5.97973 180.264 6.16233 180.481 6.39006C180.698 6.6178 180.868 6.88613 180.98 7.17953C181.092 7.47293 181.145 7.78555 181.135 8.09929C181.111 8.71841 180.846 9.30413 180.397 9.73311C179.947 10.1621 179.348 10.4008 178.725 10.3991C178.411 10.3972 178.101 10.3336 177.813 10.2119C177.524 10.0901 177.262 9.91269 177.043 9.68982C176.823 9.46695 176.651 9.20305 176.534 8.91338C176.418 8.6237 176.361 8.31399 176.366 8.00213Z" fill="#657387"/>
<path d="M46.0617 0.38356C45.7964 0.34793 45.5279 0.342417 45.2613 0.367119H16.6944C16.017 0.33502 15.3383 0.349673 14.663 0.410974C14.0788 0.423815 13.4985 0.508646 12.9353 0.663527C12.5068 0.731441 12.0892 0.855121 11.6932 1.03139C11.1397 1.2001 10.6109 1.44007 10.12 1.74519C9.74552 1.92731 9.39356 2.15207 9.07122 2.41496C7.49318 3.57669 6.27181 5.15277 5.54416 6.96639C5.49455 7.07622 5.44476 7.18606 5.40067 7.29589C4.8432 8.73975 4.71072 10.2715 4.47884 11.7813C4.407 12.2314 4.33534 12.6762 4.26977 13.1263C3.90548 15.4872 3.54118 17.8461 3.17689 20.2031C2.93398 21.7733 2.68557 23.3434 2.44266 24.9192C2.33223 25.6376 2.23359 26.3631 2.1281 27.0824C2.01767 27.6642 1.92378 28.2463 1.86315 28.8338C1.81274 29.0037 1.78125 29.1786 1.76926 29.3554C1.39388 31.8094 1.00747 34.2635 0.637605 36.7176C0.521665 37.5026 1.22282 38.3373 2.0287 38.3433C3.93316 38.3597 5.83744 38.3433 7.7419 38.3433H32.7143C33.2007 38.3719 33.6887 38.3535 34.1715 38.2885C34.7936 38.2306 35.4056 38.0937 35.9928 37.8813C36.4094 37.7694 36.8113 37.6091 37.1902 37.4036C37.6331 37.2106 38.0533 36.9697 38.4433 36.6853C38.9392 36.3713 39.3951 35.999 39.8013 35.5764C40.1893 35.2353 40.5358 34.8502 40.8335 34.4289C41.1375 34.078 41.399 33.6929 41.6128 33.2815C41.9171 32.8199 42.1654 32.3242 42.3526 31.8047C42.5314 31.4209 42.6702 31.0198 42.7665 30.6077C42.9565 30.0364 43.0788 29.4449 43.1309 28.8453C43.2799 28.1096 43.3848 27.3629 43.4842 26.6164C43.5218 26.4993 43.5404 26.3769 43.5393 26.254C43.5871 26.1222 43.6078 25.9822 43.6 25.8423C43.6799 25.4834 43.7406 25.1206 43.782 24.7553C43.8704 24.1514 43.9641 23.5476 44.058 22.9491C44.207 21.9829 44.3597 21.0166 44.5161 20.0502C44.6155 19.4353 44.7149 18.8148 44.8086 18.2001C44.7865 18.1946 44.7645 18.1891 44.7368 18.1837C44.2698 18.0693 43.7829 18.0618 43.3126 18.1617C43.3071 18.1672 43.3071 18.1727 43.3016 18.1782C43.2658 18.1544 43.2267 18.1359 43.1856 18.1232C42.5122 18.0903 41.8443 18.1122 41.1709 18.1122C41.1294 18.1077 41.0873 18.1128 41.0481 18.1271C41.0088 18.1414 40.9734 18.1645 40.9446 18.1946C40.9217 18.175 40.8977 18.1567 40.8727 18.1398C40.6788 18.1132 40.4828 18.1059 40.2875 18.1179C40.1863 18.1105 40.0848 18.1087 39.9834 18.1124C39.8068 18.1288 39.6135 18.0685 39.448 18.1891C39.4341 18.1717 39.4174 18.1569 39.3984 18.1453C38.9624 18.0848 38.9624 18.0848 38.9734 17.6566V17.6073C38.9688 17.5931 38.967 17.5783 38.9679 17.5634C38.975 17.5596 38.9812 17.5541 38.9859 17.5476C38.9907 17.5411 38.9939 17.5336 38.9954 17.5256C39.0673 17.1687 39.183 16.8118 39.1224 16.4385C39.1555 16.1585 39.1887 15.884 39.2218 15.6095C39.3322 15.0111 39.4309 14.4126 39.4867 13.8088C39.4867 13.8033 39.4812 13.7978 39.4812 13.7868C39.5024 13.7946 39.5252 13.7965 39.5474 13.7923C39.6186 13.6081 39.6579 13.4131 39.6633 13.2158C39.6854 13.0834 39.7517 12.9468 39.6413 12.8205V12.815C39.6578 12.826 39.6743 12.826 39.7019 12.8095C39.869 12.1881 39.9544 11.5477 39.9558 10.9044C39.9699 10.6262 40.0031 10.3492 40.0552 10.0755C40.1546 9.47151 40.2816 8.87869 40.6845 8.37907C40.8556 8.19249 41.0267 8.00099 41.2034 7.80817C41.5323 7.57093 41.9003 7.39258 42.2908 7.28114C42.5802 7.20262 42.8797 7.16745 43.1795 7.1768H46.5523C46.6351 6.61139 46.7178 6.04031 46.8007 5.47546L46.9166 4.70135C46.9995 4.16883 47.0877 3.63632 47.1705 3.10362C47.2257 2.79624 47.281 2.49416 47.3251 2.18678C47.3659 1.98545 47.3652 1.77799 47.3232 1.57691C47.2812 1.37583 47.1987 1.18531 47.0806 1.01681C46.9626 0.848304 46.8114 0.705323 46.6363 0.596492C46.4612 0.48766 46.2657 0.415224 46.0617 0.38356ZM26.2614 29.8767C26.1334 30.112 26.1017 30.3874 26.173 30.6453C26.1474 30.6568 26.1261 30.6761 26.1122 30.7003C26.044 30.9129 25.9978 31.1318 25.9742 31.3537C25.9023 31.7599 25.9079 31.7544 25.4829 31.7654C25.3008 31.7709 25.1075 31.716 24.9419 31.8314C24.9056 31.8006 24.8619 31.7798 24.815 31.7711C24.412 31.7382 24.0091 31.7546 23.6061 31.7601C23.0799 31.7399 22.5529 31.7473 22.0275 31.782C21.9943 31.7932 21.9654 31.8143 21.9446 31.8423C21.9225 31.8149 21.9005 31.7875 21.8672 31.7875C21.42 31.7326 20.9677 31.7326 20.5204 31.7875C20.5067 31.7893 20.4937 31.7942 20.4822 31.8018C20.4707 31.8094 20.4611 31.8195 20.4541 31.8314C20.4226 31.8029 20.3847 31.7822 20.3437 31.7711C19.5157 31.7491 18.6931 31.7382 17.8652 31.782C17.8324 31.7968 17.8025 31.8172 17.7768 31.8423C17.4457 31.6667 17.0926 31.782 16.7446 31.7656C16.7183 31.7667 16.6925 31.7731 16.6687 31.7844C16.645 31.7958 16.6239 31.8118 16.6066 31.8315C16.5867 31.8138 16.5644 31.7991 16.5402 31.7877C16.2561 31.7584 15.9702 31.7511 15.685 31.7658C14.9756 31.7692 14.2699 31.6637 13.5929 31.4529C12.9171 31.2544 12.3083 30.8767 11.8319 30.3603C11.1916 29.6355 10.9707 28.7625 10.9432 27.8347C10.9156 27.0219 11.1032 26.226 11.2136 25.43C11.304 24.9822 11.3666 24.5293 11.4012 24.0739C11.4068 24.0574 11.3957 24.041 11.3957 24.0188C11.4361 23.9775 11.4598 23.9228 11.4621 23.8652C11.5394 23.4699 11.589 23.0691 11.6554 22.6742C11.6661 22.6334 11.6667 22.5905 11.6571 22.5494C11.6475 22.5083 11.628 22.4701 11.6002 22.4381C11.6218 22.4349 11.6425 22.4274 11.6611 22.4162C11.6949 22.3673 11.7157 22.3106 11.7217 22.2515C11.8983 21.1865 12.0638 20.1213 12.2295 19.0617C12.3069 18.5676 12.4171 18.0787 12.4449 17.5793C12.444 17.5479 12.4403 17.5167 12.4339 17.4859C12.5278 17.409 12.5167 17.2829 12.5333 17.1785C12.6382 16.5198 12.7486 15.8664 12.8423 15.2126C12.9142 14.7294 13.0189 14.2462 13.0466 13.757C13.0356 13.7241 13.0246 13.702 13.0136 13.6746C13.0557 13.6331 13.0888 13.5834 13.1107 13.5285C13.1325 13.4737 13.1427 13.415 13.1405 13.356L13.6374 10.2267C13.6979 9.95805 13.7312 9.68403 13.7368 9.40875C13.7368 9.38134 13.7202 9.3649 13.7147 9.34278C13.7921 9.30989 13.7921 9.22747 13.8031 9.16168C13.886 8.69495 13.9576 8.22293 14.0295 7.75619C14.0405 7.66281 14.0675 7.56412 13.9799 7.49267V7.48719C14.004 7.48088 14.0266 7.46969 14.0462 7.4543C14.0673 7.41799 14.084 7.37926 14.0958 7.33898C14.1897 6.94919 14.1897 6.94919 14.5982 6.94371C14.9151 6.96213 15.2331 6.95297 15.5485 6.9163C15.5683 6.89701 15.5816 6.87202 15.5865 6.84484L15.603 6.86129C15.611 6.87617 15.622 6.88924 15.6353 6.89965C15.6486 6.91007 15.664 6.91761 15.6804 6.92178C16.1276 6.97665 16.58 6.97665 17.0272 6.92178C17.054 6.91592 17.0777 6.90027 17.0935 6.87793C17.1264 6.90441 17.1638 6.92483 17.204 6.93823C17.6843 6.97112 18.1644 6.94919 18.6447 6.94919C18.6839 6.95158 18.7233 6.946 18.7603 6.93277C18.7973 6.91954 18.8312 6.89895 18.86 6.87225C18.884 6.89551 18.9121 6.91416 18.9429 6.92727C19.3293 6.97112 19.7157 6.93822 20.1023 6.94371C20.715 6.96015 20.6873 6.86677 20.5881 7.52008C20.5052 8.08001 20.3895 8.62917 20.3452 9.19458C20.3617 9.22199 20.3783 9.24391 20.3948 9.27151C20.2733 10.0237 20.1519 10.7704 20.0359 11.5226C19.9476 12.088 19.8594 12.6591 19.7655 13.2299C19.6054 14.0698 19.484 14.9154 19.357 15.761C19.2521 16.4143 19.1527 17.0676 19.048 17.7209C18.8217 19.1374 18.5954 20.552 18.3691 21.9648C18.2311 22.8213 18.06 23.6722 17.9771 24.5342C17.9108 25.2809 18.2476 25.7419 18.9929 25.8517C19.6457 25.9192 20.303 25.9319 20.958 25.8896H26.0088C26.2572 25.895 26.5056 25.906 26.7595 25.895C26.9141 25.895 26.9416 25.9389 26.9141 26.0928C26.8477 26.433 26.8036 26.7845 26.7485 27.1304C26.6601 27.7013 26.5719 28.2724 26.478 28.8378C26.3974 29.1752 26.3439 29.5185 26.318 29.8644C26.318 29.8699 26.3235 29.8699 26.3235 29.8754C26.3141 29.8699 26.3032 29.8671 26.2923 29.8673C26.2813 29.8676 26.2706 29.8708 26.2614 29.8767ZM37.0089 12.3027C36.915 12.9067 36.8213 13.505 36.7329 14.109V14.1145C36.7156 14.1133 36.6984 14.1171 36.6833 14.1254C36.5591 14.4747 36.4938 14.8419 36.4902 15.2124C36.4957 15.2288 36.4957 15.2453 36.5067 15.2562C36.5122 15.2617 36.5122 15.2672 36.5177 15.2727C36.4404 15.3385 36.4516 15.4154 36.5122 15.4978C36.5177 15.4978 36.5177 15.5033 36.5177 15.5088C36.5004 15.5013 36.4811 15.4994 36.4626 15.5033C36.3797 15.6734 36.3026 15.8383 36.4246 16.0194C36.4021 16.0279 36.3815 16.0408 36.364 16.0572C36.2759 16.2818 36.2256 16.5192 36.2149 16.76C36.1653 17.2046 36.0272 17.633 36.0439 18.0886L36.077 18.1545C36.0469 18.1787 36.0221 18.2087 36.0041 18.2427C35.986 18.2767 35.9751 18.314 35.972 18.3523C35.8947 18.8464 35.801 19.3406 35.7457 19.84C35.7525 19.8801 35.7653 19.919 35.7837 19.9553C35.5967 20.4204 35.5174 20.9214 35.5518 21.4211C35.5573 21.454 35.5573 21.4211 35.5683 21.443C35.5516 21.4422 35.5349 21.444 35.5187 21.4485C35.3461 22.1448 35.2279 22.8534 35.1654 23.5678C35.1717 23.5952 35.1829 23.6212 35.1985 23.6446C35.1356 23.6993 35.096 23.7759 35.088 23.8587C35.0217 24.309 34.939 24.7591 34.879 25.2094C34.868 25.2973 34.8349 25.396 34.912 25.4729C34.8921 25.4855 34.8736 25.5002 34.8569 25.5168C34.7501 25.9598 34.6709 26.409 34.6195 26.8618C34.556 27.1017 34.5281 27.3495 34.5367 27.5975C34.5422 27.6139 34.5532 27.6304 34.5587 27.6468C34.4593 27.7071 34.4648 27.817 34.4483 27.9104C34.3987 28.2068 34.3434 28.5034 34.3048 28.8053C34.219 29.2426 34.1582 29.6844 34.1227 30.1285C34.1303 30.1537 34.1415 30.1778 34.1558 30.2C34.0928 30.2681 34.054 30.3549 34.0453 30.447C33.9847 30.782 33.9349 31.1223 33.8908 31.4573C33.8688 31.655 33.7859 31.7756 33.5818 31.7975C33.5652 31.814 33.5597 31.8304 33.5487 31.8414C33.5266 31.814 33.5046 31.7866 33.4713 31.7866C33.0241 31.7317 32.5718 31.7317 32.1245 31.7866C32.1122 31.788 32.1004 31.7921 32.0898 31.7987C32.0793 31.8052 32.0704 31.814 32.0637 31.8244C32.0315 31.7993 31.9936 31.7823 31.9533 31.775C31.317 31.7412 30.6794 31.743 30.0433 31.7805C30.0126 31.7985 29.9863 31.8229 29.9659 31.852L29.9604 31.8465C29.9364 31.8165 29.9049 31.7931 29.8691 31.7787C29.8333 31.7642 29.7944 31.7592 29.7561 31.7641C29.3643 31.7421 28.9714 31.7476 28.5804 31.7805C28.563 31.784 28.5466 31.7913 28.5323 31.8017C28.518 31.8121 28.5061 31.8254 28.4975 31.8408C28.3264 31.7085 28.1331 31.7641 27.94 31.786C27.917 31.8036 27.8981 31.8262 27.8849 31.852L27.8794 31.8465C27.8621 31.826 27.8407 31.8092 27.8167 31.7972C27.7926 31.7852 27.7663 31.7783 27.7395 31.7767C27.7126 31.7752 27.6857 31.7791 27.6604 31.7883C27.6351 31.7974 27.612 31.8117 27.5924 31.83C27.5828 31.8193 27.5717 31.8101 27.5593 31.8026C27.3607 31.7862 27.2944 31.6873 27.3503 31.5002C27.3595 31.4583 27.3576 31.4148 27.3447 31.3739C27.3337 31.352 27.3172 31.33 27.3067 31.3081C27.3563 30.9678 27.4117 30.6219 27.4613 30.2873C27.5796 29.7252 27.668 29.1573 27.7262 28.586C27.9028 27.7185 28.0303 26.84 28.1512 25.9618C28.2727 25.3414 28.3721 24.71 28.4492 24.0843C28.5762 23.4037 28.6921 22.7232 28.7693 22.0364C28.9404 21.1634 29.0783 20.2795 29.1888 19.3956C29.3378 18.6544 29.4592 17.9078 29.5476 17.1557C29.625 16.6946 29.7187 16.2279 29.785 15.7666C29.8679 15.1791 30.0224 14.6027 30.0114 14.0042C30.0004 13.318 29.647 12.9337 28.9681 12.8623C28.2095 12.8058 27.4483 12.7932 26.6883 12.8245H22.8333C22.3145 12.819 21.7956 12.8135 21.2767 12.819C21.0891 12.8245 21.0448 12.7812 21.0779 12.5884C21.1938 11.9515 21.287 11.3029 21.3869 10.6613C21.3814 10.6558 21.3759 10.6503 21.3759 10.6449C21.3963 10.6455 21.4166 10.6437 21.4365 10.6394C21.4903 10.5595 21.5209 10.4664 21.5249 10.3704C21.5857 9.93125 21.6684 9.49193 21.734 9.0528C21.8037 8.74458 21.8407 8.42994 21.8444 8.11404C21.8389 8.09211 21.8224 8.08114 21.8169 8.05921C21.9108 8.02632 21.9052 7.92689 21.9218 7.85128C21.9659 7.67018 21.9881 7.47792 22.0212 7.29134C22.082 6.95637 22.082 6.95638 22.4352 6.94541C22.523 6.95111 22.611 6.93994 22.6946 6.91252C22.7075 6.8974 22.7186 6.88084 22.7277 6.86318C22.7472 6.8925 22.7766 6.91394 22.8105 6.92368C23.2559 6.97854 23.7064 6.97854 24.1518 6.92368C24.1786 6.91777 24.2022 6.90213 24.218 6.87982C24.2478 6.90653 24.2839 6.92537 24.3229 6.93464C24.8597 6.96848 25.3981 6.96665 25.9346 6.92916C25.9634 6.91303 25.988 6.89044 26.0065 6.86318C26.3433 7.04428 26.6964 6.92915 27.0443 6.94012C27.0718 6.94153 27.0992 6.93626 27.1242 6.92476C27.1492 6.91327 27.171 6.8959 27.1878 6.87414C27.2157 6.90439 27.2523 6.92543 27.2927 6.93445C27.6846 6.97226 28.082 6.95089 28.4794 6.95089C28.5173 6.95332 28.5553 6.94825 28.5912 6.93599C28.6271 6.92372 28.6601 6.90451 28.6885 6.87944C28.7197 6.90412 28.7553 6.92272 28.7934 6.93426C29.3302 6.96809 29.8687 6.96626 30.4052 6.92878C30.434 6.91265 30.4586 6.89006 30.477 6.8628C30.5118 6.89916 30.5573 6.92354 30.6069 6.93241C30.6565 6.94128 30.7077 6.93418 30.753 6.91214C30.7682 6.89457 30.7794 6.87403 30.7861 6.85184C30.7861 6.85732 30.7916 6.85732 30.7916 6.8628C30.806 6.88151 30.8244 6.89686 30.8454 6.90775C30.8664 6.91865 30.8896 6.92484 30.9132 6.92588C30.9369 6.92693 30.9605 6.9228 30.9824 6.9138C31.0043 6.9048 31.024 6.89113 31.04 6.87376C31.0641 6.89948 31.0946 6.91845 31.1284 6.92878C31.4044 6.93426 31.6914 7.01668 31.9618 6.87376C31.9887 6.90151 32.0233 6.92066 32.0612 6.92878C32.3925 6.94522 32.7236 6.9836 33.0549 7.00005C33.1819 7.00553 33.3254 7.07698 33.4413 6.96224C33.4535 6.97976 33.4646 6.99807 33.4744 7.01705C34.0827 7.13358 34.6729 7.32921 35.2298 7.59891C35.2405 7.60347 35.2521 7.60535 35.2637 7.60439C35.2753 7.60343 35.2864 7.59967 35.2962 7.59343C35.2962 7.59891 35.3017 7.6044 35.3017 7.60988C35.3681 7.69162 35.4508 7.75886 35.5446 7.80742C36.0673 8.16604 36.4769 8.66483 36.7258 9.2458C36.8528 9.53125 36.8969 9.84429 37.0018 10.1343C37.0221 10.1604 37.0405 10.188 37.0569 10.2167C37.1376 10.9109 37.1214 11.6129 37.0089 12.3027ZM45.8133 7.13105H45.8023L45.8133 7.12009V7.13105Z" fill="#657387"/>
<path d="M179.331 8.39923C179.364 8.38033 179.385 8.36785 179.407 8.35689C179.838 8.14668 180.05 7.81606 180.001 7.42796C179.94 6.94819 179.701 6.6962 179.186 6.60168C178.74 6.52039 178.287 6.58958 177.839 6.56217C177.658 6.55177 177.606 6.60451 177.608 6.78788C177.618 7.60527 177.62 8.42286 177.607 9.24025C177.603 9.4412 177.667 9.47352 177.854 9.47957C178.079 9.48676 178.177 9.43061 178.137 9.19602C178.13 9.11021 178.129 9.0239 178.135 8.93798C178.135 8.44214 178.135 8.45159 178.632 8.46974C178.83 8.47692 178.851 8.63987 178.937 8.74252C179.042 8.8671 179.132 9.00547 179.227 9.13949C179.491 9.51114 179.581 9.54347 180.066 9.43213C179.82 9.08562 179.577 8.74366 179.331 8.39923ZM179.141 7.95613C178.839 8.05878 178.524 7.99393 178.215 8.00716C178.12 8.01095 178.137 7.93571 178.137 7.87919C178.135 7.75896 178.137 7.63874 178.137 7.51851C178.137 7.06482 178.137 7.06482 178.593 7.06615C178.74 7.06125 178.886 7.06434 179.033 7.0754C179.138 7.0748 179.239 7.11367 179.317 7.18421C179.394 7.25476 179.442 7.35179 179.451 7.45593C179.473 7.5629 179.453 7.67414 179.395 7.76695C179.337 7.85975 179.246 7.92714 179.14 7.95537L179.141 7.95613Z" fill="white"/>
</g>
<defs>
<clipPath id="clip0_3840_4579">
<rect width="181" height="38" fill="white" transform="translate(0.624512 0.353027)"/>
</clipPath>
</defs>
</svg>
