<svg width="25" height="25" viewBox="0 0 25 25" fill="none" xmlns="http://www.w3.org/2000/svg">
<path d="M3.55078 3.82666H21.5508C21.816 3.82666 22.0704 3.93202 22.2579 4.11955C22.4454 4.30709 22.5508 4.56144 22.5508 4.82666V20.8267C22.5508 21.0919 22.4454 21.3462 22.2579 21.5338C22.0704 21.7213 21.816 21.8267 21.5508 21.8267H3.55078C3.28556 21.8267 3.03121 21.7213 2.84367 21.5338C2.65614 21.3462 2.55078 21.0919 2.55078 20.8267V4.82666C2.55078 4.56144 2.65614 4.30709 2.84367 4.11955C3.03121 3.93202 3.28556 3.82666 3.55078 3.82666ZM12.6108 12.5097L6.19878 7.06466L4.90378 8.58866L12.6238 15.1437L20.2048 8.58366L18.8968 7.07066L12.6118 12.5097H12.6108Z" fill="#B3B9C4"/>
</svg>
