<svg width="25" height="25" viewBox="0 0 25 25" fill="none" xmlns="http://www.w3.org/2000/svg">
<path d="M12.5493 22.8267C7.02632 22.8267 2.54932 18.3497 2.54932 12.8267C2.54932 7.30366 7.02632 2.82666 12.5493 2.82666C18.0723 2.82666 22.5493 7.30366 22.5493 12.8267C22.5493 18.3497 18.0723 22.8267 12.5493 22.8267ZM12.5493 20.8267C14.671 20.8267 16.7059 19.9838 18.2062 18.4835C19.7065 16.9832 20.5493 14.9484 20.5493 12.8267C20.5493 10.7049 19.7065 8.6701 18.2062 7.16981C16.7059 5.66952 14.671 4.82666 12.5493 4.82666C10.4276 4.82666 8.39275 5.66952 6.89246 7.16981C5.39217 8.6701 4.54932 10.7049 4.54932 12.8267C4.54932 14.9484 5.39217 16.9832 6.89246 18.4835C8.39275 19.9838 10.4276 20.8267 12.5493 20.8267ZM11.1713 9.24166L16.0503 12.4937C16.1052 12.5302 16.1502 12.5797 16.1813 12.6378C16.2124 12.6959 16.2287 12.7608 16.2287 12.8267C16.2287 12.8926 16.2124 12.9575 16.1813 13.0155C16.1502 13.0736 16.1052 13.1231 16.0503 13.1597L11.1703 16.4117C11.1101 16.4515 11.0403 16.4744 10.9682 16.4778C10.8961 16.4812 10.8244 16.465 10.7607 16.431C10.6971 16.397 10.6438 16.3463 10.6066 16.2845C10.5694 16.2226 10.5496 16.1519 10.5493 16.0797V9.57366C10.5494 9.50131 10.5692 9.43035 10.6065 9.36834C10.6437 9.30633 10.6971 9.25559 10.761 9.22152C10.8248 9.18745 10.8967 9.17133 10.9689 9.17488C11.0412 9.17843 11.1111 9.20151 11.1713 9.24166Z" fill="#FAFBFB"/>
</svg>
