<svg width="25" height="25" viewBox="0 0 25 25" fill="none" xmlns="http://www.w3.org/2000/svg">
<path d="M22.0938 7.32466C22.5508 9.10666 22.5508 12.8267 22.5508 12.8267C22.5508 12.8267 22.5508 16.5467 22.0938 18.3287C21.8398 19.3137 21.0968 20.0887 20.1558 20.3507C18.4468 20.8267 12.5508 20.8267 12.5508 20.8267C12.5508 20.8267 6.65778 20.8267 4.94578 20.3507C4.00078 20.0847 3.25878 19.3107 3.00778 18.3287C2.55078 16.5467 2.55078 12.8267 2.55078 12.8267C2.55078 12.8267 2.55078 9.10666 3.00778 7.32466C3.26178 6.33966 4.00478 5.56466 4.94578 5.30266C6.65778 4.82666 12.5508 4.82666 12.5508 4.82666C12.5508 4.82666 18.4468 4.82666 20.1558 5.30266C21.1008 5.56866 21.8428 6.34266 22.0938 7.32466ZM10.5508 16.3267L16.5508 12.8267L10.5508 9.32666V16.3267Z" fill="#B3B9C4"/>
</svg>
